<?xml version="1.0" encoding="UTF-8" standalone="no"?>
<!-- Created with Inkscape (http://www.inkscape.org/) -->

<svg
   width="4000"
   height="1000"
   viewBox="0 0 1058.3333 264.58333"
   version="1.1"
   id="svg9175"
   inkscape:version="1.2.1 (9c6d41e, 2022-07-14)"
   sodipodi:docname="cp-logo.svg"
   xmlns:inkscape="http://www.inkscape.org/namespaces/inkscape"
   xmlns:sodipodi="http://sodipodi.sourceforge.net/DTD/sodipodi-0.dtd"
   xmlns="http://www.w3.org/2000/svg"
   xmlns:svg="http://www.w3.org/2000/svg">
  <sodipodi:namedview
     id="namedview9177"
     pagecolor="#000000"
     bordercolor="#000000"
     borderopacity="0.25"
     inkscape:showpageshadow="2"
     inkscape:pageopacity="0"
     inkscape:pagecheckerboard="0"
     inkscape:deskcolor="#d1d1d1"
     inkscape:document-units="mm"
     showgrid="false"
     inkscape:zoom="0.26304628"
     inkscape:cx="1948.3264"
     inkscape:cy="233.79917"
     inkscape:window-width="1920"
     inkscape:window-height="1027"
     inkscape:window-x="1512"
     inkscape:window-y="25"
     inkscape:window-maximized="1"
     inkscape:current-layer="g9170" />
  <defs
     id="defs9172">
    <clipPath
       clipPathUnits="userSpaceOnUse"
       id="clipPath8641">
      <path
         d="m 11518.7,11502.9 c -151,-162.7 -357.9,-298.2 -641,-365.5 381.4,-281.7 628.8,-734.3 628.8,-1244.9 0,-854.1 -692.3,-1546.4 -1546.4,-1546.4 -854.08,0 -1546.45,692.3 -1546.45,1546.4 0,854.1 692.37,1546.5 1546.45,1546.5 5.41,0 10.76,-0.3 16.15,-0.4 -6.56,-173.6 -15.71,-305 -20.97,-371.8 -61.89,9 -121.67,32.9 -171.93,70.4 -32.82,24.5 -79.28,17.8 -103.78,-15 -24.5,-32.8 -17.77,-79.3 15.03,-103.8 89.88,-67.1 201.1,-104 313.3,-104 0.2,0 0.5,0 0.7,0 112.4,0.1 223.8,37.4 313.7,104.9 32.7,24.6 39.3,71.1 14.7,103.8 -24.6,32.8 -71,39.4 -103.8,14.8 -52.1,-39.2 -114.3,-63.8 -178.9,-72 376.9,2115.5 -8.6,3219.7 -8.6,3219.7 -257.44,0 -431.82,-259.9 -336.62,-499.1 189.64,-476.4 254.97,-1111.3 270.73,-1653 -6.57,0.1 -13.12,0.3 -19.71,0.3 -1237.79,0 -2241.23,-1003.5 -2241.23,-2241.3 0,-1237.8 1003.44,-2241.2 2241.23,-2241.2 1237.8,0 2241.2,1003.4 2241.2,2241.2 0,632.1 -261.7,1202.9 -682.6,1610.4 z"
         id="path8639" />
    </clipPath>
    <linearGradient
       x1="0"
       y1="0"
       x2="1"
       y2="0"
       gradientUnits="userSpaceOnUse"
       gradientTransform="matrix(4e-7,-9284.01,-9284.01,-4e-7,9960.1,14189.1)"
       spreadMethod="pad"
       id="linearGradient8651">
      <stop
         style="stop-opacity:1;stop-color:#d91259"
         offset="0"
         id="stop8643" />
      <stop
         style="stop-opacity:1;stop-color:#d91259"
         offset="0.0239748"
         id="stop8645" />
      <stop
         style="stop-opacity:1;stop-color:#d91259"
         offset="0.205263"
         id="stop8647" />
      <stop
         style="stop-opacity:1;stop-color:#ed1c24"
         offset="1"
         id="stop8649" />
    </linearGradient>
    <clipPath
       clipPathUnits="userSpaceOnUse"
       id="clipPath8661">
      <path
         d="m 10209.1,11277.2 c 0,0 298.9,1573.9 2072,1643.6 0,0 -640.9,-1703.4 -1929.2,-1693.4 0,0 239.5,579.6 843.4,906.4 0,0 -637.5,-214.7 -986.2,-856.6 z"
         id="path8659" />
    </clipPath>
    <linearGradient
       x1="0"
       y1="0"
       x2="1"
       y2="0"
       gradientUnits="userSpaceOnUse"
       gradientTransform="matrix(-5465.05,-5465.05,-5465.05,5465.05,12590.2,13468.5)"
       spreadMethod="pad"
       id="linearGradient8669">
      <stop
         style="stop-opacity:1;stop-color:#7fcc28"
         offset="0"
         id="stop8663" />
      <stop
         style="stop-opacity:1;stop-color:#37ab9c"
         offset="0.436842"
         id="stop8665" />
      <stop
         style="stop-opacity:1;stop-color:#37ab9c"
         offset="1"
         id="stop8667" />
    </linearGradient>
    <clipPath
       clipPathUnits="userSpaceOnUse"
       id="clipPath8679">
      <path
         d="m 9936.67,12218.5 c 0,0 -209.2,1101.8 -1450.44,1150.6 0,0 448.64,-1192.4 1350.5,-1185.5 0,0 -167.66,405.8 -590.41,634.5 0,0 446.29,-150.2 690.35,-599.6 z"
         id="path8677" />
    </clipPath>
    <linearGradient
       x1="0"
       y1="0"
       x2="1"
       y2="0"
       gradientUnits="userSpaceOnUse"
       gradientTransform="matrix(3825.64,-3825.64,3825.64,3825.64,8269.9,13752.5)"
       spreadMethod="pad"
       id="linearGradient8687">
      <stop
         style="stop-opacity:1;stop-color:#7fcc28"
         offset="0"
         id="stop8681" />
      <stop
         style="stop-opacity:1;stop-color:#37ab9c"
         offset="0.436842"
         id="stop8683" />
      <stop
         style="stop-opacity:1;stop-color:#37ab9c"
         offset="1"
         id="stop8685" />
    </linearGradient>
  </defs>
  <g
     inkscape:label="Layer 1"
     inkscape:groupmode="layer"
     id="layer1">
    <g
       id="g9170"
       transform="translate(445.24103,-207.16351)">
      <g
         id="g547"
         transform="translate(-25.504998,-10.128285)">
        <g
           id="g17452"
           transform="matrix(0.43654836,-0.27303921,0.27303921,0.43654836,-265.0495,85.56576)">
          <g
             id="g534"
             transform="matrix(1.1117397,0,0,1.1117397,0.51547261,-32.986472)">
            <path
               d="m -339.62428,423.12471 c -26.82276,0 -48.74296,-20.97617 -50.25461,-47.42039 -0.0554,0.96661 -0.0864,1.93675 -0.0864,2.91747 0,27.80242 22.53827,50.34139 50.34104,50.34139 27.80241,0 50.34139,-22.53897 50.34139,-50.34139 0,-0.98072 -0.0317,-1.95086 -0.0882,-2.91747 -1.50988,26.44422 -23.4315,47.42039 -50.25319,47.42039"
               style="fill:#b3b3b3;fill-opacity:1;fill-rule:nonzero;stroke:none;stroke-width:0.0352778"
               id="path8633" />
            <g
               id="g8635"
               transform="matrix(0.03527778,0,0,-0.03527778,-690.9945,727.1592)"
               style="fill:#8e44ad;fill-opacity:1">
              <g
                 id="g8637"
                 clip-path="url(#clipPath8641)"
                 style="fill:#8e44ad;fill-opacity:1">
                <path
                   d="m 11518.7,11502.9 c -151,-162.7 -357.9,-298.2 -641,-365.5 381.4,-281.7 628.8,-734.3 628.8,-1244.9 0,-854.1 -692.3,-1546.4 -1546.4,-1546.4 -854.08,0 -1546.45,692.3 -1546.45,1546.4 0,854.1 692.37,1546.5 1546.45,1546.5 5.41,0 10.76,-0.3 16.15,-0.4 -6.56,-173.6 -15.71,-305 -20.97,-371.8 -61.89,9 -121.67,32.9 -171.93,70.4 -32.82,24.5 -79.28,17.8 -103.78,-15 -24.5,-32.8 -17.77,-79.3 15.03,-103.8 89.88,-67.1 201.1,-104 313.3,-104 0.2,0 0.5,0 0.7,0 112.4,0.1 223.8,37.4 313.7,104.9 32.7,24.6 39.3,71.1 14.7,103.8 -24.6,32.8 -71,39.4 -103.8,14.8 -52.1,-39.2 -114.3,-63.8 -178.9,-72 376.9,2115.5 -8.6,3219.7 -8.6,3219.7 -257.44,0 -431.82,-259.9 -336.62,-499.1 189.64,-476.4 254.97,-1111.3 270.73,-1653 -6.57,0.1 -13.12,0.3 -19.71,0.3 -1237.79,0 -2241.23,-1003.5 -2241.23,-2241.3 0,-1237.8 1003.44,-2241.2 2241.23,-2241.2 1237.8,0 2241.2,1003.4 2241.2,2241.2 0,632.1 -261.7,1202.9 -682.6,1610.4"
                   style="fill:#8e44ad;fill-opacity:1;fill-rule:nonzero;stroke:none"
                   id="path8653" />
              </g>
            </g>
            <g
               id="g8655"
               transform="matrix(0.03527778,0,0,-0.03527778,-690.9945,727.1592)"
               style="fill:#27ae60;fill-opacity:1">
              <g
                 id="g8657"
                 clip-path="url(#clipPath8661)"
                 style="fill:#27ae60;fill-opacity:1">
                <path
                   d="m 10209.1,11277.2 c 0,0 298.9,1573.9 2072,1643.6 0,0 -640.9,-1703.4 -1929.2,-1693.4 0,0 239.5,579.6 843.4,906.4 0,0 -637.5,-214.7 -986.2,-856.6"
                   style="fill:#27ae60;fill-opacity:1;fill-rule:nonzero;stroke:none"
                   id="path8671" />
              </g>
            </g>
          </g>
        </g>
        <text
           xml:space="preserve"
           style="font-size:127.435px;letter-spacing:-9.77661px;fill:#ffffff;fill-opacity:1;stroke-width:107.768"
           x="-274.09567"
           y="395.27588"
           id="text17508"><tspan
             sodipodi:role="line"
             id="tspan17506"
             style="font-style:normal;font-variant:normal;font-weight:600;font-stretch:normal;font-family:'JetBrains Mono';-inkscape-font-specification:'JetBrains Mono Semi-Bold';fill:#ffffff;stroke-width:107.768"
             x="-274.09567"
             y="395.27588">cherrypicking</tspan></text>
      </g>
      <text
         xml:space="preserve"
         style="font-style:normal;font-variant:normal;font-weight:600;font-stretch:normal;font-size:3.175px;font-family:'JetBrains Mono';-inkscape-font-specification:'JetBrains Mono Semi-Bold';fill:#ffffff;stroke-width:2.68499"
         x="283.99533"
         y="84.45063"
         id="text525"><tspan
           sodipodi:role="line"
           id="tspan523"
           style="stroke-width:2.68499"
           x="283.99533"
           y="84.45063">s</tspan></text>
    </g>
  </g>
</svg>
